<svg width="158" height="22" viewBox="0 0 158 22" fill="none" xmlns="http://www.w3.org/2000/svg">
<path d="M0 11L2.25237 12.7625L11.182 5.7875V21H14.3768V5.7875L23.2905 12.775L25.5588 11L12.7794 1L0 11Z" fill="#C27500"/>
<path d="M41.4401 2.77L39.3838 1L27.8823 10.9L39.3838 20.8L41.4401 19.03L31.995 10.9L41.4401 2.77Z" fill="#C27500"/>
<path d="M54.686 6.975H50.762V18H48.341V6.975H44.417V4.986H54.686V6.975ZM62.8967 8.766L57.8657 20.538C57.7997 20.694 57.7127 20.811 57.6047 20.889C57.5027 20.973 57.3437 21.015 57.1277 21.015H55.4717L57.1997 17.307L53.4647 8.766H55.4177C55.5917 8.766 55.7267 8.808 55.8227 8.892C55.9247 8.976 55.9997 9.072 56.0477 9.18L58.0097 13.968C58.0757 14.13 58.1297 14.292 58.1717 14.454C58.2197 14.616 58.2647 14.781 58.3067 14.949C58.3607 14.781 58.4147 14.616 58.4687 14.454C58.5227 14.286 58.5827 14.121 58.6487 13.959L60.5027 9.18C60.5507 9.06 60.6287 8.961 60.7367 8.883C60.8507 8.805 60.9767 8.766 61.1147 8.766H62.8967ZM66.2509 4.626V18H64.0279V4.626H66.2509ZM74.4147 12.321C74.4147 12.033 74.3727 11.763 74.2887 11.511C74.2107 11.253 74.0907 11.028 73.9287 10.836C73.7667 10.644 73.5597 10.494 73.3077 10.386C73.0617 10.272 72.7737 10.215 72.4437 10.215C71.8017 10.215 71.2947 10.398 70.9227 10.764C70.5567 11.13 70.3227 11.649 70.2207 12.321H74.4147ZM70.1757 13.662C70.2117 14.136 70.2957 14.547 70.4277 14.895C70.5597 15.237 70.7337 15.522 70.9497 15.75C71.1657 15.972 71.4207 16.14 71.7147 16.254C72.0147 16.362 72.3447 16.416 72.7047 16.416C73.0647 16.416 73.3737 16.374 73.6317 16.29C73.8957 16.206 74.1237 16.113 74.3157 16.011C74.5137 15.909 74.6847 15.816 74.8287 15.732C74.9787 15.648 75.1227 15.606 75.2607 15.606C75.4467 15.606 75.5847 15.675 75.6747 15.813L76.3137 16.623C76.0677 16.911 75.7917 17.154 75.4857 17.352C75.1797 17.544 74.8587 17.7 74.5227 17.82C74.1927 17.934 73.8537 18.015 73.5057 18.063C73.1637 18.111 72.8307 18.135 72.5067 18.135C71.8647 18.135 71.2677 18.03 70.7157 17.82C70.1637 17.604 69.6837 17.289 69.2757 16.875C68.8677 16.455 68.5467 15.939 68.3127 15.327C68.0787 14.709 67.9617 13.995 67.9617 13.185C67.9617 12.555 68.0637 11.964 68.2677 11.412C68.4717 10.854 68.7627 10.371 69.1407 9.963C69.5247 9.549 69.9897 9.222 70.5357 8.982C71.0877 8.742 71.7087 8.622 72.3987 8.622C72.9807 8.622 73.5177 8.715 74.0097 8.901C74.5017 9.087 74.9247 9.36 75.2787 9.72C75.6327 10.074 75.9087 10.512 76.1067 11.034C76.3107 11.55 76.4127 12.141 76.4127 12.807C76.4127 13.143 76.3767 13.371 76.3047 13.491C76.2327 13.605 76.0947 13.662 75.8907 13.662H70.1757ZM80.178 10.368C80.466 9.816 80.808 9.384 81.204 9.072C81.6 8.754 82.068 8.595 82.608 8.595C83.034 8.595 83.376 8.688 83.634 8.874L83.49 10.539C83.46 10.647 83.415 10.725 83.355 10.773C83.301 10.815 83.226 10.836 83.13 10.836C83.04 10.836 82.905 10.821 82.725 10.791C82.551 10.761 82.38 10.746 82.212 10.746C81.966 10.746 81.747 10.782 81.555 10.854C81.363 10.926 81.189 11.031 81.033 11.169C80.883 11.301 80.748 11.463 80.628 11.655C80.514 11.847 80.406 12.066 80.304 12.312V18H78.081V8.766H79.386C79.614 8.766 79.773 8.808 79.863 8.892C79.953 8.97 80.013 9.114 80.043 9.324L80.178 10.368ZM91.4378 19.206V20.646H84.3458V19.206H91.4378ZM102.486 14.931C102.618 14.931 102.735 14.982 102.837 15.084L103.791 16.119C103.263 16.773 102.612 17.274 101.838 17.622C101.07 17.97 100.146 18.144 99.0662 18.144C98.1002 18.144 97.2302 17.979 96.4562 17.649C95.6882 17.319 95.0312 16.86 94.4852 16.272C93.9392 15.684 93.5192 14.982 93.2252 14.166C92.9372 13.35 92.7932 12.459 92.7932 11.493C92.7932 10.515 92.9492 9.621 93.2612 8.811C93.5732 7.995 94.0112 7.293 94.5752 6.705C95.1452 6.117 95.8232 5.661 96.6092 5.337C97.3952 5.007 98.2652 4.842 99.2192 4.842C100.167 4.842 101.007 4.998 101.739 5.31C102.477 5.622 103.104 6.03 103.62 6.534L102.81 7.659C102.762 7.731 102.699 7.794 102.621 7.848C102.549 7.902 102.447 7.929 102.315 7.929C102.225 7.929 102.132 7.905 102.036 7.857C101.94 7.803 101.835 7.74 101.721 7.668C101.607 7.59 101.475 7.506 101.325 7.416C101.175 7.326 101.001 7.245 100.803 7.173C100.605 7.095 100.374 7.032 100.11 6.984C99.8522 6.93 99.5522 6.903 99.2102 6.903C98.6282 6.903 98.0942 7.008 97.6082 7.218C97.1282 7.422 96.7142 7.722 96.3662 8.118C96.0182 8.508 95.7482 8.988 95.5562 9.558C95.3642 10.122 95.2682 10.767 95.2682 11.493C95.2682 12.225 95.3702 12.876 95.5742 13.446C95.7842 14.016 96.0662 14.496 96.4202 14.886C96.7742 15.276 97.1912 15.576 97.6712 15.786C98.1512 15.99 98.6672 16.092 99.2192 16.092C99.5492 16.092 99.8462 16.074 100.11 16.038C100.38 16.002 100.626 15.945 100.848 15.867C101.076 15.789 101.289 15.69 101.487 15.57C101.691 15.444 101.892 15.291 102.09 15.111C102.15 15.057 102.213 15.015 102.279 14.985C102.345 14.949 102.414 14.931 102.486 14.931ZM108.991 8.622C109.675 8.622 110.296 8.733 110.854 8.955C111.418 9.177 111.898 9.492 112.294 9.9C112.696 10.308 113.005 10.806 113.221 11.394C113.437 11.982 113.545 12.639 113.545 13.365C113.545 14.097 113.437 14.757 113.221 15.345C113.005 15.933 112.696 16.434 112.294 16.848C111.898 17.262 111.418 17.58 110.854 17.802C110.296 18.024 109.675 18.135 108.991 18.135C108.301 18.135 107.674 18.024 107.11 17.802C106.546 17.58 106.063 17.262 105.661 16.848C105.265 16.434 104.956 15.933 104.734 15.345C104.518 14.757 104.41 14.097 104.41 13.365C104.41 12.639 104.518 11.982 104.734 11.394C104.956 10.806 105.265 10.308 105.661 9.9C106.063 9.492 106.546 9.177 107.11 8.955C107.674 8.733 108.301 8.622 108.991 8.622ZM108.991 16.425C109.759 16.425 110.326 16.167 110.692 15.651C111.064 15.135 111.25 14.379 111.25 13.383C111.25 12.387 111.064 11.628 110.692 11.106C110.326 10.584 109.759 10.323 108.991 10.323C108.211 10.323 107.632 10.587 107.254 11.115C106.882 11.637 106.696 12.393 106.696 13.383C106.696 14.373 106.882 15.129 107.254 15.651C107.632 16.167 108.211 16.425 108.991 16.425ZM121.037 11.124C120.785 10.818 120.509 10.602 120.209 10.476C119.915 10.35 119.597 10.287 119.255 10.287C118.919 10.287 118.616 10.35 118.346 10.476C118.076 10.602 117.845 10.794 117.653 11.052C117.461 11.304 117.314 11.628 117.212 12.024C117.11 12.414 117.059 12.876 117.059 13.41C117.059 13.95 117.101 14.409 117.185 14.787C117.275 15.159 117.401 15.465 117.563 15.705C117.725 15.939 117.923 16.11 118.157 16.218C118.391 16.32 118.652 16.371 118.94 16.371C119.402 16.371 119.795 16.275 120.119 16.083C120.443 15.891 120.749 15.618 121.037 15.264V11.124ZM123.26 4.626V18H121.901C121.607 18 121.421 17.865 121.343 17.595L121.154 16.704C120.782 17.13 120.353 17.475 119.867 17.739C119.387 18.003 118.826 18.135 118.184 18.135C117.68 18.135 117.218 18.03 116.798 17.82C116.378 17.61 116.015 17.307 115.709 16.911C115.409 16.509 115.175 16.014 115.007 15.426C114.845 14.838 114.764 14.166 114.764 13.41C114.764 12.726 114.857 12.09 115.043 11.502C115.229 10.914 115.496 10.404 115.844 9.972C116.192 9.54 116.609 9.204 117.095 8.964C117.581 8.718 118.127 8.595 118.733 8.595C119.249 8.595 119.69 8.676 120.056 8.838C120.422 9 120.749 9.219 121.037 9.495V4.626H123.26ZM131.403 12.321C131.403 12.033 131.361 11.763 131.277 11.511C131.199 11.253 131.079 11.028 130.917 10.836C130.755 10.644 130.548 10.494 130.296 10.386C130.05 10.272 129.762 10.215 129.432 10.215C128.79 10.215 128.283 10.398 127.911 10.764C127.545 11.13 127.311 11.649 127.209 12.321H131.403ZM127.164 13.662C127.2 14.136 127.284 14.547 127.416 14.895C127.548 15.237 127.722 15.522 127.938 15.75C128.154 15.972 128.409 16.14 128.703 16.254C129.003 16.362 129.333 16.416 129.693 16.416C130.053 16.416 130.362 16.374 130.62 16.29C130.884 16.206 131.112 16.113 131.304 16.011C131.502 15.909 131.673 15.816 131.817 15.732C131.967 15.648 132.111 15.606 132.249 15.606C132.435 15.606 132.573 15.675 132.663 15.813L133.302 16.623C133.056 16.911 132.78 17.154 132.474 17.352C132.168 17.544 131.847 17.7 131.511 17.82C131.181 17.934 130.842 18.015 130.494 18.063C130.152 18.111 129.819 18.135 129.495 18.135C128.853 18.135 128.256 18.03 127.704 17.82C127.152 17.604 126.672 17.289 126.264 16.875C125.856 16.455 125.535 15.939 125.301 15.327C125.067 14.709 124.95 13.995 124.95 13.185C124.95 12.555 125.052 11.964 125.256 11.412C125.46 10.854 125.751 10.371 126.129 9.963C126.513 9.549 126.978 9.222 127.524 8.982C128.076 8.742 128.697 8.622 129.387 8.622C129.969 8.622 130.506 8.715 130.998 8.901C131.49 9.087 131.913 9.36 132.267 9.72C132.621 10.074 132.897 10.512 133.095 11.034C133.299 11.55 133.401 12.141 133.401 12.807C133.401 13.143 133.365 13.371 133.293 13.491C133.221 13.605 133.083 13.662 132.879 13.662H127.164ZM140.703 10.566C140.643 10.662 140.58 10.731 140.514 10.773C140.448 10.809 140.364 10.827 140.262 10.827C140.154 10.827 140.037 10.797 139.911 10.737C139.791 10.677 139.65 10.611 139.488 10.539C139.326 10.461 139.14 10.392 138.93 10.332C138.726 10.272 138.483 10.242 138.201 10.242C137.763 10.242 137.418 10.335 137.166 10.521C136.92 10.707 136.797 10.95 136.797 11.25C136.797 11.448 136.86 11.616 136.986 11.754C137.118 11.886 137.289 12.003 137.499 12.105C137.715 12.207 137.958 12.3 138.228 12.384C138.498 12.462 138.771 12.549 139.047 12.645C139.329 12.741 139.605 12.852 139.875 12.978C140.145 13.098 140.385 13.254 140.595 13.446C140.811 13.632 140.982 13.857 141.108 14.121C141.24 14.385 141.306 14.703 141.306 15.075C141.306 15.519 141.225 15.93 141.063 16.308C140.907 16.68 140.673 17.004 140.361 17.28C140.049 17.55 139.662 17.763 139.2 17.919C138.744 18.069 138.216 18.144 137.616 18.144C137.298 18.144 136.986 18.114 136.68 18.054C136.38 18 136.089 17.922 135.807 17.82C135.531 17.718 135.273 17.598 135.033 17.46C134.799 17.322 134.592 17.172 134.412 17.01L134.925 16.164C134.991 16.062 135.069 15.984 135.159 15.93C135.249 15.876 135.363 15.849 135.501 15.849C135.639 15.849 135.768 15.888 135.888 15.966C136.014 16.044 136.158 16.128 136.32 16.218C136.482 16.308 136.671 16.392 136.887 16.47C137.109 16.548 137.388 16.587 137.724 16.587C137.988 16.587 138.213 16.557 138.399 16.497C138.591 16.431 138.747 16.347 138.867 16.245C138.993 16.143 139.083 16.026 139.137 15.894C139.197 15.756 139.227 15.615 139.227 15.471C139.227 15.255 139.161 15.078 139.029 14.94C138.903 14.802 138.732 14.682 138.516 14.58C138.306 14.478 138.063 14.388 137.787 14.31C137.517 14.226 137.238 14.136 136.95 14.04C136.668 13.944 136.389 13.833 136.113 13.707C135.843 13.575 135.6 13.41 135.384 13.212C135.174 13.014 135.003 12.771 134.871 12.483C134.745 12.195 134.682 11.847 134.682 11.439C134.682 11.061 134.757 10.701 134.907 10.359C135.057 10.017 135.276 9.72 135.564 9.468C135.858 9.21 136.221 9.006 136.653 8.856C137.091 8.7 137.595 8.622 138.165 8.622C138.801 8.622 139.38 8.727 139.902 8.937C140.424 9.147 140.859 9.423 141.207 9.765L140.703 10.566Z" fill="#C27500"/>
</svg>
